<?xml version="1.0" standalone="no"?>
<svg viewBox="0 0 200 200" xmlns="http://www.w3.org/2000/svg">
  <path fill="#e6f2ff" d="M37.6,-57.1C51.3,-49.7,66.9,-43.7,74.4,-32.4C81.9,-21.2,81.4,-4.8,76.6,9.2C71.8,23.2,62.6,34.7,52.2,43.4C41.8,52,30.2,57.7,18.5,59.6C6.7,61.5,-5.1,59.7,-16,55.8C-26.8,52,-36.6,46.1,-48,38.5C-59.4,30.9,-72.4,21.6,-77.8,8.9C-83.2,-3.9,-81.1,-20,-74.4,-33.7C-67.7,-47.4,-56.4,-58.7,-43.2,-66.4C-30,-74,-15,-78,-1.5,-75.6C11.9,-73.2,23.9,-64.5,37.6,-57.1Z" transform="translate(100 100)" />
</svg>
