<svg version="1.2" baseProfile="tiny-ps" xmlns="http://www.w3.org/2000/svg" viewBox="0 0 329 329" width="329" height="329">
  <title>artboard 2</title>
  <style>
    .top { fill: #e6f2ff }
    .bottom { fill: #00fe81 }
  </style>
  <g>
    <path class="top" d="M248.08 166.27C248.08 177.54 245.87 188.48 241.51 198.79C239.14 204.4 236.19 209.68 232.7 214.59L216.16 184.74C218.28 178.84 219.35 172.64 219.35 166.27C219.35 158.86 217.9 151.68 215.04 144.93C212.28 138.41 208.33 132.54 203.29 127.5C198.25 122.47 192.39 118.51 185.86 115.75C179.11 112.9 171.94 111.45 164.53 111.45C157.12 111.45 149.95 112.9 143.2 115.75C136.67 118.51 130.81 122.47 125.77 127.5C120.73 132.54 116.77 138.41 114.01 144.93C111.16 151.68 109.71 158.86 109.71 166.27C109.71 172.64 110.78 178.84 112.9 184.74L96.36 214.59C92.87 209.68 89.92 204.4 87.55 198.79C83.19 188.48 80.98 177.54 80.98 166.27C80.98 154.99 83.19 144.05 87.55 133.74C91.76 123.79 97.78 114.86 105.45 107.19C113.12 99.52 122.05 93.5 132 89.29C142.31 84.93 153.26 82.71 164.53 82.71C175.8 82.71 186.75 84.93 197.06 89.29C207.01 93.5 215.94 99.52 223.61 107.19C231.28 114.86 237.3 123.79 241.51 133.74C245.87 144.05 248.08 154.99 248.08 166.27Z" />
    <path class="bottom" d="M226.2 222.63C225.36 223.55 224.5 224.46 223.61 225.35C217.55 231.41 210.7 236.44 203.18 240.36C201.76 241.1 200.32 241.8 198.86 242.46C198.26 242.73 197.66 242.99 197.06 243.25C196.18 243.62 195.3 243.97 194.42 244.31C184.88 247.97 174.84 249.82 164.53 249.82C154.21 249.82 144.17 247.97 134.64 244.31C133.76 243.97 132.88 243.62 132 243.25C131.4 242.99 130.79 242.73 130.19 242.46C128.73 241.8 127.29 241.1 125.88 240.36C118.36 236.44 111.51 231.41 105.45 225.35C104.56 224.46 103.7 223.55 102.85 222.63L118.01 195.28L120.7 190.42L123.5 185.36L148.78 139.73C151.95 134.01 157.99 130.45 164.53 130.45C171.07 130.45 177.1 134 180.27 139.73L205.56 185.36C203.33 190.15 200.29 194.48 196.52 198.26C193 201.77 189 204.65 184.6 206.83L164.53 170.6L144.46 206.83L142.14 211.02L139.81 215.21C140.92 215.77 142.05 216.3 143.2 216.78C143.53 216.92 143.86 217.06 144.19 217.19C145.7 217.8 147.23 218.33 148.78 218.79C153.86 220.32 159.13 221.08 164.53 221.08C169.93 221.08 175.2 220.32 180.28 218.79C181.83 218.33 183.36 217.8 184.87 217.19C185.2 217.06 185.53 216.92 185.86 216.78C187.01 216.3 188.14 215.77 189.24 215.21C194.43 212.6 199.14 209.18 203.29 205.03C206.26 202.06 208.86 198.8 211.05 195.28L226.2 222.63Z" />
  </g>
</svg>
